<svg xmlns="http://www.w3.org/2000/svg" width="103" height="32" fill="none"><path fill="#191825" fill-opacity=".5" d="M54.3373 8.04048c0 1.15326-.9293 2.08192-2.0825 2.08192-1.1533 0-2.0819-.92866-2.0819-2.08192 0-1.15325.8969-2.08188 2.0819-2.08188 1.1859.032 2.0825.96095 2.0825 2.08188Zm-8.5848 4.19642v.5126s-.9926-1.2819-3.1068-1.2819c-3.4911 0-6.2143 2.6588-6.2143 6.3423 0 3.6518 2.6912 6.3423 6.2143 6.3423 2.1462 0 3.1068-1.3133 3.1068-1.3133v.5443c0 .2563.1926.448.4486.448h2.5942V11.787h-2.5942c-.256.0009-.4486.2256-.4486.4499Zm0 7.7192c-.48.7049-1.4413 1.3136-2.5942 1.3136-2.0499 0-3.6198-1.2813-3.6198-3.4598 0-2.1782 1.5699-3.4595 3.6198-3.4595 1.1213 0 2.1462.6407 2.5942 1.3133v4.2924Zm4.965-8.1682h3.0748v12.0443h-3.0748V11.7879Zm45.9335-.3206c-2.1142 0-3.1075 1.2819-3.1075 1.2819V5.9906h-3.0748v17.8416h2.5948c.2564 0 .448-.2244.448-.4487v-.5443s.9933 1.3133 3.1069 1.3133c3.4916 0 6.2146-2.6899 6.2146-6.3417 0-3.6517-2.723-6.3435-6.182-6.3435Zm-.5126 9.77c-1.1856 0-2.1142-.608-2.5949-1.3132v-4.2924c.4807-.6406 1.5056-1.3133 2.5949-1.3133 2.0498 0 3.6194 1.2813 3.6194 3.4595 0 2.1782-1.5692 3.4594-3.6194 3.4594Zm-7.2709-4.548v7.1749H85.792v-6.8229c0-1.9856-.6406-2.7869-2.3692-2.7869-.9286 0-1.8899.4807-2.4995 1.1856v8.3925h-3.0742V11.7882h2.4336c.2563 0 .4486.2244.4486.4487v.5126c.897-.9293 2.0819-1.2819 3.2668-1.2819 1.3456 0 2.4669.385 3.3638 1.1536 1.0886.8969 1.5056 2.0499 1.5056 4.0681Zm-18.4829-5.222c-2.1135 0-3.1068 1.2819-3.1068 1.2819V5.9906H64.203v17.8416h2.5942c.2563 0 .4486-.2244.4486-.4487v-.5443s.9933 1.3133 3.1068 1.3133c3.4918 0 6.2143-2.6899 6.2143-6.3417.032-3.652-2.6905-6.3435-6.1823-6.3435Zm-.5126 9.77c-1.1849 0-2.1135-.608-2.5942-1.3132v-4.2924c.4807-.6406 1.5056-1.3133 2.5942-1.3133 2.0505 0 3.6198 1.2813 3.6198 3.4595 0 2.1782-1.5693 3.4594-3.6198 3.4594Zm-8.3278-9.77c.9286 0 1.4092.1606 1.4092.1606v2.8505s-2.5625-.8649-4.1637.9613v8.4241h-3.0755V11.7879h2.5949c.2563 0 .4479.2243.4479.4487v.5126c.5773-.673 1.8266-1.2819 2.7872-1.2819ZM29.6091 22.7429c-.16-.3843-.3203-.8006-.4803-1.1532-.2566-.5764-.5129-1.1213-.7366-1.6336l-.032-.032c-2.2105-4.805-4.5804-9.6734-7.0792-14.4778l-.096-.19265c-.2628-.4984-.5189-1.00029-.7683-1.50556-.3206-.57695-.6406-1.18494-1.1533-1.76189C18.2385.704946 16.7649 0 15.1957 0c-1.6019 0-3.0432.70495-4.0998 1.92189-.4806.5763-.8332 1.18494-1.15324 1.76188-.24999.50495-.50611 1.00684-.7683 1.50557l-.09632.19263c-2.46651 4.80443-4.8687 9.67313-7.0789 14.47783l-.03231.0636c-.224.5133-.48063 1.0576-.73695 1.6336-.16.3526-.319992.737-.479989 1.1533C.33326 23.8952.204936 25.0165.365573 26.17c.352313 2.4026 1.953557 4.4198 4.164077 5.3174C5.36259 31.84 6.22754 32 7.12416 32c.25631 0 .57631-.032.83295-.0643 1.05726-.128 2.14619-.48 3.20349-1.0886 1.3132-.737 2.5625-1.7936 3.9717-3.3312 1.4093 1.5376 2.6905 2.5942 3.9718 3.3312 1.0576.6086 2.1462.9606 3.2031 1.0886.2563.0326.577.0643.8333.0643.8969 0 1.7935-.16 2.5942-.5126 2.2425-.8976 3.8117-2.9468 4.1644-5.3174.2544-1.1209.1264-2.2415-.29-3.4271Zm-14.4457 1.6656c-1.7299-2.1782-2.8512-4.2281-3.2352-5.9573-.16-.737-.1923-1.3776-.096-1.9542.0637-.5127.2563-.9613.5127-1.3456.6086-.8643 1.6335-1.4093 2.8188-1.4093 1.1856 0 2.2425.5127 2.8191 1.4093.2563.3843.4483.8332.513 1.3456.0957.5769.0637 1.2492-.0963 1.9542-.3856 1.6972-1.5069 3.7474-3.2361 5.9573Zm12.7799 1.5055c-.224 1.6656-1.3453 3.1075-2.9145 3.7481-.7687.32-1.6019.4163-2.4342.32-.8007-.0963-1.6019-.3526-2.4342-.8326-1.1533-.6413-2.3062-1.6336-3.6518-3.1075 2.1139-2.5942 3.3951-4.965 3.8758-7.0785.2243-.9933.2566-1.8899.16-2.7232-.1277-.8006-.4163-1.5376-.8647-2.1782-.9935-1.4419-2.6594-2.2742-4.5167-2.2742-1.8572 0-3.5231.865-4.516 2.2742-.4483.6406-.73698 1.3776-.86498 2.1782-.12799.8333-.09631 1.7619.16 2.7232.48028 2.1135 1.79358 4.516 3.87548 7.1105-1.3133 1.4736-2.4985 2.4669-3.6518 3.1075-.83295.4806-1.63325.7369-2.43387.8326-.86462.0963-1.69789-.032-2.43451-.32-1.56925-.6406-2.69051-2.0825-2.9145-3.7481-.096-.8006-.03232-1.6012.28831-2.4982.09568-.3206.25631-.6406.41631-1.0249.22432-.5126.47999-1.0576.73663-1.6019l.03232-.0637c2.20988-4.773 4.58007-9.6417 7.04661-14.38207l.096-.19263c.2566-.47999.5129-.99262.7689-1.47325.2563-.51263.5443-.99326.8969-1.4099.6727-.76798 1.5693-1.18493 2.5626-1.18493.9932 0 1.8898.41695 2.5625 1.18493.3526.4176.6406.89823.8969 1.4099.2566.48063.513.99326.7686 1.47325l.0963.19263c2.4289 4.76007 4.7677 9.56567 7.0149 14.41407v.032c.2567.5133.4807 1.0893.737 1.6026.16.3836.3203.7036.4163 1.0243.2557.832.3517 1.6332.2234 2.4658Z"/></svg>