<svg xmlns="http://www.w3.org/2000/svg" width="189" height="32" fill="none"><mask id="a" width="189" height="32" x="0" y="0" maskUnits="userSpaceOnUse" style="mask-type:luminance"><path fill="#fff" d="M188.696 0H.0927734v32H188.696V0Z"/></mask><g mask="url(#a)"><mask id="b" width="189" height="32" x="0" y="0" maskUnits="userSpaceOnUse" style="mask-type:luminance"><path fill="#fff" d="M188.696 0H.0927734v32H188.696V0Z"/></mask><g mask="url(#b)"><path fill="#191825" fill-opacity=".5" d="M74.0498 3.50239c0-1.58029 1.2819-2.869578 2.8696-2.869578 1.5803 0 2.8696 1.281918 2.8696 2.869578-.0553 1.58029-1.3888 2.81432-2.9728 2.75906-1.5029-.05525-2.7075-1.25981-2.7664-2.75906Z"/></g><mask id="c" width="189" height="32" x="0" y="0" maskUnits="userSpaceOnUse" style="mask-type:luminance"><path fill="#fff" d="M188.696 0H.0927734v32H188.696V0Z"/></mask><g mask="url(#c)"><path fill="#191825" fill-opacity=".5" d="M119.274 22.6191c0-1.5913 1.282-2.8769 2.859-2.8769 1.587 0 2.873 1.2856 2.873 2.8769 0 1.5877-1.286 2.8733-2.873 2.8733-1.577 0-2.859-1.2893-2.859-2.8733Z"/></g><mask id="d" width="189" height="32" x="0" y="0" maskUnits="userSpaceOnUse" style="mask-type:luminance"><path fill="#fff" d="M188.696 0H.0927734v32H188.696V0Z"/></mask><g mask="url(#d)"><path fill="#191825" fill-opacity=".5" d="M27.0206 21.3775c-2.4644 0-4.1846-1.9597-4.1846-4.763 0-2.7995 1.7166-4.7592 4.1846-4.7592 2.4791 0 4.2178 1.9597 4.2178 4.7592-.0037 2.8475-1.6982 4.763-4.2178 4.763Zm0-13.70689c-5.2197 0-9.0102 3.76099-9.0102 8.94389 0 5.183 3.7942 8.944 9.0102 8.944 5.2456 0 9.0471-3.761 9.0471-8.9403 0-5.1866-3.8089-8.94759-9.0471-8.94759ZM68.5024 17.064c-.1805-.35-.4126-.6778-.6815-.9652l-.1584-.1657.1658-.1584c.2394-.2542.4862-.5526.7183-.8988l4.6082-6.85166h-5.5954L64.0967 13.384c-.1952.291-.5894.4273-1.1824.4273h-.792V3.67751c0-2.02602-1.2598-2.2986-2.6265-2.2986h-2.3354l.0037 23.91439h4.9545v-7.1684h.4641c.5636 0 .9467.0663 1.1272.372l2.7333 5.1608c.7662 1.3998 1.525 1.6392 2.9543 1.6392h3.8089l-2.8327-4.6745-1.8713-3.5584Zm24.069-9.43023c-2.5233 0-4.133 1.11983-5.0318 2.07022l-.2984.30571-.1068-.41254c-.2653-1.01669-1.1567-1.56924-2.5013-1.56924h-2.2212l.0147 17.26898h4.9251v-7.9567c0-.7809.0995-1.4513.3057-2.0702.5489-1.8639 2.0776-3.028 3.9858-3.028 1.5361 0 2.1402.8104 2.1402 2.9101v7.5221c0 1.7865.8251 2.6264 2.6191 2.6264h2.3391l-.0111-10.9847c0-4.37984-2.1328-6.68213-6.1591-6.68213Zm-15.5892.39047h-2.3355l.0148 13.35326v3.9158h2.4901l.0884.0036 1.1641-.0036h1.153v-.0037h.011l.0111-14.6389c-.0074-1.76817-.851-2.62646-2.597-2.62646ZM46.3562 21.3775c-2.4644 0-4.1847-1.9597-4.1847-4.763 0-2.7995 1.7203-4.7592 4.1847-4.7592 2.4754 0 4.2178 1.9597 4.2178 4.7592-.0037 2.8475-1.6982 4.763-4.2178 4.763Zm0-13.70689c-5.2235 0-9.0176 3.76099-9.0176 8.94389 0 5.183 3.7941 8.944 9.0176 8.944 5.2345 0 9.0471-3.761 9.0471-8.9403 0-5.1866-3.8089-8.94759-9.0471-8.94759Z"/></g></g><mask id="e" width="189" height="32" x="0" y="0" maskUnits="userSpaceOnUse" style="mask-type:luminance"><path fill="#fff" d="M188.696 0H.0927734v32H188.696V0Z"/></mask><g mask="url(#e)"><mask id="f" width="189" height="32" x="0" y="0" maskUnits="userSpaceOnUse" style="mask-type:luminance"><path fill="#fff" d="M188.656.628906H.0927734V31.9585H188.656V.628906Z"/></mask><g mask="url(#f)"><mask id="g" width="189" height="32" x="0" y="0" maskUnits="userSpaceOnUse" style="mask-type:luminance"><path fill="#fff" d="M188.696 0H.0927734v32H188.696V0Z"/></mask><g mask="url(#g)"><path fill="#191825" fill-opacity=".5" d="M151.885 21.3749c-2.464 0-4.184-1.9597-4.184-4.763 0-2.7996 1.72-4.7593 4.184-4.7593 2.48 0 4.218 1.9597 4.218 4.7593 0 2.8475-1.698 4.763-4.218 4.763Zm0-13.70693c-5.223 0-9.017 3.76103-9.017 8.94393s3.787 8.9439 9.017 8.9439c5.239 0 9.047-3.761 9.047-8.9402 0-5.1866-3.812-8.94763-9.047-8.94763Z"/></g><mask id="h" width="189" height="32" x="0" y="0" maskUnits="userSpaceOnUse" style="mask-type:luminance"><path fill="#fff" d="M188.696 0H.0927734v32H188.696V0Z"/></mask><g mask="url(#h)"><path fill="#191825" fill-opacity=".5" d="M109.107 20.6118c-2.693 0-3.647-2.3465-3.647-4.5456 0-.9725.247-4.1294 3.397-4.1294 1.561 0 3.643.4494 3.643 4.2878-.004 3.6284-1.849 4.3872-3.393 4.3872Zm5.946-12.63126c-.936 0-1.654.37205-2.015 1.05352l-.133.26523-.228-.2026c-.796-.68885-2.222-1.50294-4.531-1.50294-4.605 0-7.703 3.45525-7.703 8.60505 0 5.1424 3.209 8.734 7.798 8.734 1.566 0 2.807-.3684 3.787-1.1125l.376-.2836v.4788c0 2.3097-1.492 3.5806-4.196 3.5806-1.318 0-2.512-.3205-3.311-.6115-1.043-.3168-1.658-.0516-2.078.9909l-.394.9651-.553 1.4108.343.1805c1.731.921 3.986 1.4661 6.019 1.4661 4.192 0 9.088-2.1439 9.088-8.1851l.014-15.84341h-2.283"/></g></g></g><mask id="i" width="189" height="32" x="0" y="0" maskUnits="userSpaceOnUse" style="mask-type:luminance"><path fill="#fff" d="M188.696 0H.0927734v32H188.696V0Z"/></mask><g mask="url(#i)"><mask id="j" width="189" height="32" x="0" y="0" maskUnits="userSpaceOnUse" style="mask-type:luminance"><path fill="#fff" d="M188.696 0H.0927734v32H188.696V0Z"/></mask><g mask="url(#j)"><path fill="#191825" fill-opacity=".5" d="m8.68677 21.1754-4.01152-.0037v-4.7888c0-1.0277.39784-1.5545 1.27087-1.6797H8.6794c1.9487 0 3.2085 1.2303 3.2158 3.2195 0 2.0444-1.2303 3.2527-3.20843 3.2527ZM4.67525 8.25307V6.99325c0-1.1051.46415-1.62817 1.49189-1.69448h2.0518c1.75711 0 2.81066 1.05353 2.81066 2.81432 0 1.34454-.722 2.91011-2.74804 2.91011H4.67525V8.25307Zm9.12445 4.78143-.722-.4089.6299-.5415c.7404-.6299 1.9671-2.0555 1.9671-4.51251 0-3.76102-2.9138-6.18487-7.42629-6.18487H2.51663C1.17945 1.43461.107508 2.52865.0927734 3.86582V25.2016H8.35524c5.01716 0 8.25136-2.7296 8.25136-6.9584 0-2.2692-1.0498-4.2178-2.8069-5.2087Z"/></g><mask id="k" width="189" height="32" x="0" y="0" maskUnits="userSpaceOnUse" style="mask-type:luminance"><path fill="#fff" d="M188.696 0H.0927734v32H188.696V0Z"/></mask><g mask="url(#k)"><path fill="#191825" fill-opacity=".5" d="M182.924 7.68728c-2.055.00368-4.004.95038-5.286 2.56382l-.357.4494-.28-.5046c-.914-1.66506-2.479-2.50494-4.667-2.50494-2.288 0-3.824 1.27455-4.539 2.03707l-.464.50467-.18-.66675c-.258-.95776-1.113-1.48452-2.402-1.48452h-2.07l-.022 17.20277h4.7v-7.5958c0-.6667.081-1.3224.247-2.0113.449-1.8344 1.683-3.8089 3.757-3.6136 1.275.1252 1.901 1.1124 1.901 3.0169v10.2001h4.733v-7.5958c0-.8325.078-1.4587.266-2.0775.375-1.7535 1.668-3.5511 3.669-3.5511 1.447 0 1.985.8178 1.985 3.0243v7.6841c0 1.735.774 2.516 2.512 2.516h2.211l.003-10.981c.015-4.39097-1.919-6.61222-5.717-6.61222ZM140.146 19.3092c-.015.0148-2.037 2.1513-4.701 2.1513-2.427 0-4.877-1.4882-4.877-4.8109 0-2.8695 1.901-4.8771 4.623-4.8771.884 0 1.886.3168 2.045.8472l.022.0884c.206.7552.895 1.2746 1.672 1.2709l2.575.0037v-2.2544c0-2.97276-3.776-4.04471-6.321-4.04471-5.437 0-9.379 3.78311-9.379 8.99551 0 5.2087 3.901 8.9918 9.279 8.9918 4.668 0 7.202-3.0685 7.228-3.0942l.132-.1658-2.04-3.3853-.258.2836Z"/></g></g></svg>