<svg xmlns="http://www.w3.org/2000/svg" width="114" height="32" fill="none"><path fill="#191825" fill-opacity=".5" d="M54.7706 25.0383h-3.515c-.0222 0-.0222 0-.0334-.0112l-3.0255-3.6929-3.0256 3.6929c-.0111.0112-.0222.0112-.0333.0112h-2.8143c-.0222 0-.0333-.0112-.0444-.0223 0-.0111 0-.0333.0111-.0445l4.4604-5.4727-4.4048-5.417c-.0111-.0223-.0111-.0334-.0111-.0556.0111-.0112.0222-.0223.0333-.0223h3.515c.0111 0 .0223.0111.0334.0223l2.6585 3.2925 2.7029-3.2925c.0112-.0112.0223-.0223.0334-.0223h2.8587c.0111 0 .0334.0111.0445.0223.0111.0222 0 .0333-.0111.0556l-4.1713 5.0166 4.7831 5.8731c.0111.0112.0111.0334.0111.0445-.0223.0223-.0334.0223-.0556.0223ZM73.7805 15.9384c-1.5573 0-2.614.9455-2.9254 2.5806h5.2947v-.1112c0-1.3015-.9678-2.4694-2.3693-2.4694Zm5.0945 4.2714c-.0111.0111-.0223.0222-.0334.0222h-8.0422c.1669 1.8687 1.3793 2.9366 3.3482 2.9366 1.2124 0 2.5027-.4116 4.3158-1.3793.0334-.0223.0668.0111.0668.0445v2.4694c0 .0222-.0112.0333-.0223.0333-1.6907.7119-3.3926 1.2013-4.7274 1.2013-3.4594 0-5.9732-2.525-5.9732-5.9954 0-3.4705 2.5138-5.9955 5.9732-5.9955 3.159 0 5.1835 2.1245 5.1835 5.05 0 .4783-.0779 1.5795-.089 1.6129ZM95.2039 11.7112c-.9899 0-1.7908-.7897-1.7908-1.75747 0-1.0011.8009-1.81311 1.7908-1.81311.99 0 1.7909.81201 1.7909 1.81311 0 .96777-.8009 1.75747-1.7909 1.75747Zm-1.446 13.3258c-.0334 0-.0445-.0111-.0445-.0445V14.036c0-.0222.0111-.0445.0334-.0445H96.65c.0222 0 .0334.0223.0334.0445v10.9565c0 .0334-.0223.0445-.0445.0445h-2.881ZM60.0874 23.391c-.5228 0-1.0567-.0778-1.6796-.2336l.0111-7.0299c.7231-.2336 1.346-.3337 1.9689-.3337 2.0133 0 3.3592 1.4794 3.3592 3.6929 0 2.3693-1.4349 3.9043-3.6596 3.9043Zm.7898-9.8441c-.8231 0-1.6463.1446-2.5139.4449h-2.892c-.0223 0-.0445.0223-.0445.0445v17.9642c.8676-.1223 1.9354-.4338 2.981-1.1679V25.371c.7119.1001 1.3014.1668 1.8687.1668 3.9599 0 6.5183-2.3692 6.5183-6.0399 0-3.5039-2.436-5.951-5.9176-5.951ZM88.4743 22.4771c-.901.4783-1.713.7008-2.4694.7008-1.7909 0-2.8698-1.2681-2.8698-3.3927 0-2.4471 1.3681-4.0377 3.4927-4.0377.5895 0 1.1568.1446 1.8465.456v6.2736Zm0-14.2824v5.7285c-.8454-.2447-1.5907-.3559-2.347-.3559-3.4483 0-6.04 2.5917-6.04 6.04 0 3.4259 2.2914 5.9176 5.4504 5.9176 1.0901 0 2.1135-.2781 3.3148-.8899v.99c.7897-.1557 1.7019-.4672 2.6028-1.1123V7.01562c-.8787.12236-1.9243.42269-2.981 1.17908ZM106.75 22.4579c-.879.5005-1.624.7452-2.291.7452-1.925 0-3.07-1.268-3.07-3.3926 0-2.4138 1.357-4.0378 3.37-4.0378.534 0 1.19.2114 1.991.6341v6.0511Zm2.981-8.5984c0-.0667-.056-.1223-.122-.1223h-2.347c-.067 0-.134.0556-.134.1223v.4005h-.055c-1.079-.4783-2.014-.6897-2.915-.6897-3.248 0-5.795 2.6919-5.795 6.1401 0 3.4816 2.28 5.8175 5.673 5.8175.901 0 2.069-.0667 3.159-1.3125v1.4126c.767-.1668 1.68-.4894 2.536-1.1123V13.8595ZM34.2925 22.3002h7.2858c-.1113.812-.3893 1.7686-1.0122 2.7363h-7.575c-.9233 0-1.6908-.723-1.7798-1.624 0-.0111-.0111-.0223-.0111-.0445V8.99663c0-.01113.0111-.02225.0111-.03337.089-.91212.8565-1.63514 1.7798-1.63514h8.5761c-.1113.81201-.3894 1.79086-1.0234 2.75858h-6.2513v3.9154h6.1957c.0222 0 .0445.0223.0445.0445v2.7141c0 .0223-.0223.0445-.0445.0445h-6.1957v5.495ZM25.1715 25.2685c-.723 0-1.1679-.5673-1.1679-1.257 0-.7341.5116-1.2569 1.1679-1.2569.6452 0 1.1568.5116 1.1568 1.2569 0 .7453-.5116 1.257-1.1568 1.257Zm0-2.6474c-.7341 0-1.3682.5562-1.3682 1.3904 0 .7898.5673 1.3904 1.3682 1.3904.723 0 1.3571-.5561 1.3571-1.3904 0-.8342-.6229-1.3904-1.3571-1.3904Z"/><path fill="#191825" fill-opacity=".5" d="M24.8486 23.9027v-.5117h.3448c.178 0 .3782.0223.3782.2336 0 .2559-.1891.267-.4004.267-.0111.0111-.3226.0111-.3226.0111Zm.9677-.2447c0-.3337-.2002-.4783-.6006-.4783h-.6229v1.6462h.2669v-.7007h.2559l.4227.7007h.3114l-.456-.723c.2447-.0222.4226-.1446.4226-.4449ZM112.134 15.8159c-.723 0-1.168-.5673-1.168-1.2569 0-.7342.511-1.257 1.168-1.257.645 0 1.156.5117 1.156 1.257 0 .7452-.511 1.2569-1.156 1.2569Zm0-2.6362c-.735 0-1.369.5562-1.369 1.3904 0 .7898.568 1.3904 1.369 1.3904.723 0 1.357-.5561 1.357-1.3904 0-.8454-.634-1.3904-1.357-1.3904Z"/><path fill="#191825" fill-opacity=".5" d="M111.8 14.4463v-.5006h.345c.178 0 .378.0223.378.2336 0 .2558-.189.267-.4.267h-.323Zm.979-.2336c0-.3337-.2-.4783-.601-.4783h-.623v1.6462h.267v-.7007h.256l.423.7007h.311l-.456-.723c.234-.0222.423-.1446.423-.4449ZM15.772 10.0759l-.5228-1.49056-4.4938-5.99549.8009-.20022 7.7307 6.68513 4.5495-1.30143c.5339-.13348 1.1457-.16685 1.6017-.16685-1.4238-3.08117-4.0489-5.61729-7.4971-6.840858C11.1225-1.67039 3.61422 1.9002 1.18933 8.72994.432943 10.8434.266093 13.0236.577546 15.0925L11.4673 11.3106l4.3047-1.2347ZM25.9277 8.78516c-.4004.25583-.99.60066-1.5684.78975l-4.5605 1.30139-3.0367 9.7663-.7898.2559.6452-7.4527-.356-1.5461-4.2713 1.2236L.688843 15.7595c.900987 4.3381 3.971037 8.1312 8.453747 9.7218 6.82971 2.436 14.32691-1.1346 16.76291-7.9643 1.0456-2.9255.9788-5.9955.0222-8.73184Z"/><path fill="#fff" d="m16.2505 11.8894.3559 1.5461-.6452 7.4527.7898-.2559 3.0367-9.7663 4.5606-1.30141c.5784-.1891 1.1679-.5228 1.5683-.78976-.1446-.40044-.3003-.78976-.4783-1.17907-.4671 0-1.0678.02224-1.6017.16685l-4.5495 1.30143-7.7307-6.68513-.8009.20022 4.4827 5.99548.5228 1.49049-4.3047 1.2347-10.889772 3.782c.03337.2224.077864.456.122357.6785L11.9791 13.1018l4.2714-1.2124Z"/></svg>