<svg xmlns="http://www.w3.org/2000/svg" width="142" height="41" fill="none"><path fill="url(#a)" fill-rule="evenodd" d="M8.55273 4.09787C7.12207 5.09823 5.82837 6.28098 4.70532 7.6124c4.5893-.42607 10.41988.26964 17.18908 3.6543 7.2286 3.6142 13.0494 3.7364 17.1004 2.955-.3676-1.1129-.8304-2.1825-1.3785-3.1993-4.6373.4891-10.5823-.1583-17.5107-3.62242-4.3996-2.1998-8.2778-3.10597-11.55287-3.30211ZM34.9074 7.16665C31.2453 3.075 25.9234.5 20 .5c-1.7395 0-3.4273.222107-5.0363.63948 2.1792.59461 4.4942 1.46451 6.9307 2.68279 5.0726 2.53626 9.452 3.35289 13.013 3.34438Zm4.9535 10.96145c-4.894.9664-11.6521.7679-19.7553-3.2837C12.53 11.0566 6.50043 11.1043 2.4339 12.008c-.2099.0466-.41486.0956-.61487.1466-.53241 1.1579-.957396 2.3755-1.262328 3.6399.325684-.087.662228-.1697 1.009458-.2469 4.93341-1.0963 11.90394-1.0487 20.32824 3.1635 7.5757 3.7878 13.6052 3.7401 17.6718 2.8364.1393-.0309.2766-.0629.4116-.0959.0148-.3153.0222-.6326.0222-.9516 0-.8025-.0472-1.594-.1391-2.3719Zm-.5361 7.5442c-4.8465.8473-11.4078.5221-19.2192-3.3835C12.53 18.501 6.50043 18.5487 2.4339 19.4524c-.90265.2005-1.714661.4448-2.43097.7027C.000977 20.2698 0 20.3848 0 20.5c0 11.0457 8.95429 20 20 20 9.2571 0 17.0453-6.2891 19.3248-14.8277Z" clip-rule="evenodd"/><path fill="#191825" d="M70.736 16.108v-3.624h-14.28v3.624h5.232V29.5h3.792V16.108h5.256Zm7.7685 1.464c-.24-.072-.6-.12-.96-.12-.96 0-2.472.384-3.096 1.728v-1.608h-3.528V29.5h3.648v-5.208c0-2.376 1.32-3.24 2.784-3.24.36 0 .744.024 1.152.12v-3.6Zm1.5866 8.64c0 1.896 1.512 3.624 4.128 3.624 1.584 0 2.736-.672 3.36-1.68 0 .816.096 1.248.12 1.344h3.288c-.024-.12-.144-.912-.144-1.848V21.82c0-2.448-1.416-4.608-5.28-4.608-3.504 0-5.088 2.256-5.232 3.96l3.168.648c.072-.888.768-1.752 2.04-1.752 1.152 0 1.752.6 1.752 1.296 0 .408-.216.72-.864.816l-2.808.432c-1.968.288-3.528 1.488-3.528 3.6Zm5.016.984c-1.008 0-1.416-.6-1.416-1.224 0-.84.576-1.2 1.344-1.32l2.256-.36v.528c0 1.848-1.104 2.376-2.184 2.376Zm20.2139-9.624h-3.84l-2.5444 7.416-2.76-7.416h-3.96l4.896 11.928h3.6724l4.536-11.928Zm5.505 11.928V12.124h-3.648V29.5h3.648Zm8.692-3c-1.368 0-2.688-.984-2.688-2.976 0-2.016 1.32-2.952 2.688-2.952 1.392 0 2.688.936 2.688 2.952s-1.296 2.976-2.688 2.976Zm0-9.288c-3.553 0-6.336 2.616-6.336 6.312s2.783 6.336 6.336 6.336c3.576 0 6.336-2.64 6.336-6.336s-2.76-6.312-6.336-6.312Zm7.844 12.96c.336 2.136 2.52 4.248 5.952 4.248 4.464 0 6.384-2.976 6.384-6.408v-10.44h-3.48v1.272c-.336-.624-1.368-1.488-3.312-1.488-3.264 0-5.544 2.688-5.544 5.832 0 3.312 2.376 5.808 5.544 5.808 1.728 0 2.76-.696 3.192-1.344v.552c0 2.16-1.128 3.048-2.952 3.048-1.368 0-2.328-.84-2.568-1.992l-3.216.912Zm6.216-4.344c-1.464 0-2.568-1.008-2.568-2.64 0-1.632 1.2-2.64 2.568-2.64s2.544 1.008 2.544 2.64c0 1.632-1.056 2.64-2.544 2.64Z"/><defs><linearGradient id="a" x1="36" x2="-3.73321" y1="43.7" y2="36.0931" gradientUnits="userSpaceOnUse"><stop stop-color="#5D50C6"/><stop offset="1" stop-color="#F85E9F"/></linearGradient></defs></svg>