<svg xmlns="http://www.w3.org/2000/svg" width="174" height="32" fill="none"><path fill="#191825" fill-opacity=".5" d="m100.241 31.14 13.304-30.10837c.211-.45688-.036-.849797-.548-.849797h-9.32c-.273.015499-.537.103182-.765.254091-.228.150908-.412.359632-.533.604846L89.2394 31.14c-.1918.466.0549.8498.5574.8498h9.1468c.5117 0 1.0964-.3838 1.2974-.8498Zm47.708-8.105L168.6.190971h-24.151l-5.464 8.799509h9.475L127.471 31.999h25.558l9.521-8.964h-14.601ZM59.5696.181833H43.5788c-.474.027472-.9324.179682-1.3287.441228-.3964.261545-.7166.623139-.9282 1.048199L28.7394 30.5095c-.3655.8224.0822 1.4895.9777 1.4895h7.9223c.8955 0 1.9189-.6671 2.2661-1.4803l3.5911-8.1782h3.719c1.1605-.0731 1.6539.3564 1.0143 1.6996l-2.7596 6.4694c-.3472.8224.0914 1.4895.9869 1.4895h7.9223c.4759-.025.9366-.1761 1.3348-.4378.3982-.2618.7196-.6247.9313-1.0517l3.6002-8.3243c1.1331-2.7048-.5025-4.7973-2.8783-4.9069 2.1016-.7584 4.0388-2.8509 4.9069-4.7516l1.8641-4.38601c2.2478-5.09879.6487-8.02282-4.5689-7.949719M54.9095 9.28289l-1.9738 4.34031c-.4568 1.0417-1.1147 1.124-1.7726 1.0966H46.713l2.9789-6.76187h4.2673c1.0416.06397 1.3066.43861.9503 1.32496ZM90.6923.172696H73.7512c-.3393.017682-.6678.125128-.952.311357-.2841.186229-.5137.444564-.6653.748607L59.1676 30.9299c-.2467.5848.0548 1.0508.6945 1.0508h18.1381c5.7475-.0822 9.0462-1.3524 11.6687-7.438l1.8641-4.0571c1.462-3.4723.0274-4.98-2.7139-5.4186 2.2844-.7036 4.0023-2.8509 4.7424-4.7424l1.5169-3.21646c1.864-4.29468.3107-6.99027-4.3952-6.935444M82.3771 20.0927l-1.1513 2.3118c-.5757 1.6082-1.5808 2.0468-2.9972 2.0651h-5.2998l2.5403-5.9851h5.2998c1.4985.1096 2.0834.4751 1.6082 1.6082Zm3.0428-10.65448-.7949 1.82748-.1188.2376c-.132.3812-.3864.7081-.7236.9296-.3372.2214-.7382.3251-1.1405.2949h-4.5962l2.1016-4.84297h4.6876c.8407.05483.9777.60308.5848 1.55339ZM116.479.181833 112.54 8.99048h5.62c.384 0 .566.27413.411.6305l-9.823 21.74752c-.164.3472.028.6305.411.6305h10.006c.384 0 .822-.2833.978-.6397l9.43-21.73832c.09-.18285.227-.33842.398-.45081.17-.11238.367-.17755.57-.18882h5.766l5.428-8.799517h-25.256ZM33.4635 11.019l1.2427-2.71384C37.2099 2.58502 35.556.127008 30.64.190971H18.8068C13.9365.127008 9.87937 2.86829 7.63152 7.96707L3.97647 18.2926H.522461l6.606489 8.9183 10.91945-8.9183h-2.7778l3.2073-7.4472c.5208-1.22442 1.4163-1.80923 2.3757-1.85492h1.8641c.4386.01828.7401.15534.9138.34723l5.7932-4.87034 4.0388 6.55163Z"/><path fill="#191825" fill-opacity=".5" d="m6.88232 29.8327-4.8612-6.1587-.25586.5482c-2.256985 5.1354-1.882343 7.6939 2.988 7.767H16.4311c4.8338-.0731 9.0645-2.6316 11.3306-7.767l3.4723-7.9588h3.1068L29.041 7.33594 18.2129 16.2634h2.9698l-2.1931 5.0713c-.5299 1.0783-1.334 1.6631-2.193 1.6996h-1.5534l-8.36088 6.7984ZM172.446.00012157c.43 0 .795.15533943 1.097.45688043.302.301541.457.667048.457 1.096508 0 .42033-.155.78584-.457 1.09652-.302.31068-.667.45688-1.097.45688-.204.00314-.407-.0358-.595-.1144-.189-.0786-.359-.19518-.501-.34248-.302-.31068-.457-.67619-.457-1.09652s.155-.804105.457-1.096508c.142-.146869.312-.26316.501-.341728.189-.0785677.391-.11775431.595-.11515243Zm0 2.81437843c.168.00379.335-.02667.49-.08951.156-.06285.297-.15676.415-.27599.12-.11768.214-.25872.277-.41433.063-.15562.093-.32251.089-.49029.003-.16626-.028-.33141-.091-.48536-.063-.153963-.156-.293507-.275-.410129-.118-.119671-.259-.21387-.414-.276747-.156-.062876-.323-.093087-.491-.088757-.166-.003615-.331.026959-.485.089831-.154.062871-.294.1567-.41.275673-.247.246716-.366.548259-.366.895489 0 .34723.119.6579.366.90462.247.24671.548.3655.895.3655Zm.795-.4386h-.365l-.457-.65791h-.192v.65791h-.329V.703717h.521c.183 0 .329.045688.439.127927.109.091376.173.210166.173.365506 0 .20103-.109.35636-.32.4386l.53.74015Zm-1.005-.93204h.174c.21 0 .311-.08224.311-.23757 0-.15534-.092-.228445-.302-.228445h-.183v.466015Z"/></svg>