<svg xmlns="http://www.w3.org/2000/svg" width="212" height="32" fill="none"><path fill="#fff" d="M22.801 19.2256c1.8217 4.9355 7.3123 7.4619 12.2492 5.6444 4.9342-1.8301 7.4662-7.3151 5.6375-12.252-1.8232-4.94266-7.3052-7.46482-12.2493-5.6431-4.9398 1.82877-7.4619 7.3109-5.6374 12.2507ZM10.608 25.4216c5.2661 0 9.5351-4.2689 9.5351-9.535s-4.269-9.53504-9.5351-9.53504c-5.26602 0-9.535 4.26894-9.535 9.53504 0 5.2661 4.26898 9.535 9.535 9.535Z"/><path fill="#191825" fill-opacity=".5" d="M12.2338 15.7841c0 .9716-.7894 1.768-1.761 1.768-.97582 0-1.76382-.795-1.76382-1.768 0-.9702.788-1.7568 1.76382-1.7568.9716.0015 1.761.7866 1.761 1.7568ZM33.4825 15.7841c0 .9716-.7865 1.768-1.7581 1.768-.9787 0-1.7638-.795-1.7638-1.768 0-.9702.7851-1.7568 1.7638-1.7568.973.0015 1.7581.7866 1.7581 1.7568Z"/><path fill="#191825" fill-opacity=".5" d="M5.23364 15.7868c0 2.8907 2.35128 5.2378 5.24206 5.2378 2.8836 0 5.2335-2.3471 5.2335-5.2378 0-2.8837-2.3513-5.2321-5.2335-5.2321-2.88937.0028-5.24206 2.3499-5.24206 5.2321Zm1.80618 0c0-1.8909 1.54493-3.4288 3.43868-3.4288 1.8909 0 3.4273 1.5421 3.4273 3.4288 0 1.8966-1.5364 3.4373-3.4273 3.4373-1.89375.0014-3.43868-1.5379-3.43868-3.4373ZM26.4851 15.7868c0 2.8907 2.3485 5.2378 5.2378 5.2378 2.8851 0 5.2321-2.3471 5.2321-5.2378 0-2.8837-2.347-5.2321-5.2321-5.2321-2.8879.0028-5.2378 2.3499-5.2378 5.2321Zm1.8062 0c0-1.8909 1.5407-3.4288 3.4358-3.4288 1.8909 0 3.426 1.5421 3.426 3.4288 0 1.8966-1.5351 3.4373-3.426 3.4373-1.898.0014-3.4358-1.5379-3.4358-3.4373Z"/><path fill="#fff" d="M28.0715 5.97362c1.1043-.40671 2.2341-.60442 3.3497-.63548-3.039-1.35993-6.4791-2.04908-10.2906-2.04908-3.7818 0-7.2727.70468-10.3103 2.00389 5.4976.10873 9.9672 4.41447 10.3527 9.84145.0932-1.2455.3982-2.4769.9363-3.6434 1.1848-2.58005 3.3045-4.53733 5.9622-5.51738Z"/><path fill="#191825" fill-opacity=".5" d="M40.2697 9.6225c.4971-2.12816 2.0745-4.25773 2.0745-4.25773l-7.0792-.00423C31.2953 2.79743 26.4741 1.4375 21.1333 1.4375c-5.5442 0-10.5504 1.39241-14.49747 3.97387L0 5.41702s1.55905 2.10556 2.06319 4.21819C.772462 11.3905.00564872 13.5469.00564872 15.8883c0 5.8451 4.75763128 10.5999 10.60545128 10.5999 3.3427 0 6.3238-1.5577 8.2683-3.9781l2.2581 3.3807 2.275-3.4104c1.0239 1.302 2.3443 2.3583 3.892 3.0743 2.5744 1.1834 5.4595 1.3006 8.1158.3192 5.4863-2.0293 8.3036-8.1455 6.2743-13.6247-.3559-.9646-.8416-1.8415-1.4249-2.6267ZM21.1319 3.28887c3.8114 0 7.2515.68914 10.2905 2.05048-1.117.02966-2.2453.22878-3.3497.63266-2.6577.98005-4.7774 2.93734-5.9594 5.51319-.538 1.1664-.8416 2.3978-.9362 3.6434-.3884-5.4242-4.8579-9.72994-10.3556-9.8415 3.0362-1.29497 6.5257-1.99823 10.3104-1.99823ZM17.6184 20.6248c-1.5224 2.2454-4.0982 3.7253-7.0101 3.7253-4.66867 0-8.46743-3.8016-8.46743-8.4603 0-4.6715 3.80017-8.46607 8.46743-8.46607 4.6673 0 8.466 3.79457 8.466 8.46607 0 .2852-.0551.5535-.0847.8289-.1412 1.4305-.6016 2.7707-1.3712 3.9061Zm17.0605 3.2424c-2.1211.7795-4.4215.6933-6.4763-.2542-1.4573-.6751-2.6506-1.7328-3.5106-3.0461-.3503-.531-.6581-1.0944-.8855-1.7116-.2584-.6976-.3869-1.4164-.4561-2.1408-.1412-1.4687.072-2.9543.7047-4.3312.949-2.0547 2.6379-3.618 4.759-4.40317 4.3806-1.61553 9.2569.63125 10.8752 5.01037 1.617 4.3792-.6312 9.2555-5.0104 10.8767ZM54.8521 2.98674l-3.1039 1.07185v4.05013h-3.4401v2.71558h3.3469v8.7188c0 4.1434 1.4107 5.8436 4.8805 5.8436.8798 0 1.72-.1087 2.5631-.3389l.137-.0339-.0382-2.8159-.2372.0904c-.6821.2359-1.2159.3517-1.6283.3517-1.6296 0-2.234-.9166-2.234-3.3907v-8.4208h3.9696V8.10872h-3.9696V2.90625l-.2458.08049ZM65.5846 10.8586V8.10765h-3.1492V25.0863h3.4429v-8.5225c0-3.5728 1.5012-5.5414 4.221-5.5414.394 0 .7767.0593 1.2427.1906l.2232.0636.1129-3.35112-1.4813-.11298c-1.9954-.00141-3.6067 1.07608-4.6122 3.0461ZM77.8143 8.10622H74.555V25.0863h3.4428V8.10622h-.1835Zm-3.5926-4.97511c0 1.12974.9207 2.04625 2.0476 2.04625 1.1298 0 2.0477-.91651 2.0477-2.04625 0-1.12833-.9179-2.04907-2.0477-2.04907-1.1269-.00283-2.0476.92074-2.0476 2.04907ZM90.1568 7.70703c-2.3625 0-4.3495 1.11845-5.6741 3.15337V8.10244H81.335V31.9979h3.4457v-9.2624c1.2427 1.6903 3.0249 2.6195 5.2434 2.6195 4.3523 0 7.164-3.5714 7.164-9.0859 0-5.1206-2.8272-8.56207-7.0313-8.56207Zm-.9616 14.86317c-2.7241 0-4.4159-2.3287-4.4159-6.0695 0-3.611 1.785-5.9439 4.5472-5.9439 2.6619 0 4.2535 2.2115 4.2535 5.9086.0014 3.7634-1.6805 6.1048-4.3848 6.1048ZM107.251 7.71094c-2.106 0-3.95.39823-5.642 1.21165l-.104.05084.036 2.93877.272-.1525c1.617-.9038 3.147-1.3656 4.541-1.3656 2.494 0 3.926 1.4291 3.926 3.9273v.1454h-1.97c-5.668 0-8.7866 2.0533-8.7866 5.7758 0 2.9896 2.2506 5.0796 5.4736 5.0796 2.371 0 4.206-.932 5.513-2.6859v2.4515h3.111v-10.275c-.001-4.7096-2.143-7.10186-6.37-7.10186Zm3.023 10.21006c0 2.9246-1.759 4.8169-4.482 4.8169-1.668 0-2.831-1.0958-2.831-2.6633 0-2.0604 1.97-3.1916 5.545-3.1916h1.771c-.003.2641-.003 1.038-.003 1.038ZM128.243 0v10.412c-1.27-1.76522-3.037-2.70008-5.306-2.70008-4.212 0-7.042 3.46828-7.042 8.62278 0 5.3098 2.87 9.0182 6.973 9.0182 2.43 0 4.325-1.0761 5.639-3.1676v2.9035h3.183V0h-3.447Zm-4.483 22.5031c-2.623 0-4.253-2.2877-4.253-5.9707 0-3.6872 1.644-6.071 4.191-6.071 2.844 0 4.542 2.268 4.542 6.071.003 3.6335-1.751 5.9707-4.48 5.9707ZM147.075 8.10547l-4.882 9.80473-4.514-9.80473H133.8l8.321 16.98003 8.546-16.98003h-3.592ZM155.679 8.10622h-3.26V25.0863h3.447V8.10622h-.187Zm-3.59-4.97511c0 1.12974.92 2.04625 2.048 2.04625 1.134 0 2.048-.91651 2.048-2.04625 0-1.12833-.917-2.04907-2.048-2.04907-1.127-.00283-2.048.92074-2.048 2.04907ZM159.902 12.4613c0 2.388 1.641 3.6462 4.672 5.129 1.91.9391 2.909 1.4927 2.909 2.8159 0 1.3571-1.226 2.2341-3.13 2.2341-1.345 0-2.839-.3785-4.319-1.1057l-.252-.1243-.111 2.9938.114.0424c1.415.5634 2.902.8388 4.439.8388 4.211 0 6.929-2.0067 6.929-5.1121 0-2.5885-1.721-3.9033-4.705-5.2957-2.185-1.0266-3.101-1.624-3.101-2.7128 0-1.0309 1.019-1.7031 2.595-1.7031 1.424 0 2.813.3164 4.128.9434l.248.1144.15-2.92889-.137-.03954c-1.426-.42366-2.834-.63689-4.19-.63689-3.731-.00565-6.239 1.82453-6.239 4.54722ZM181.896 7.71094c-5.174 0-8.387 3.40756-8.387 8.88686 0 5.4821 3.216 8.884 8.387 8.884 5.199 0 8.425-3.4033 8.425-8.884 0-5.4779-3.229-8.88686-8.425-8.88686Zm.03 14.96206c-2.86 0-4.78-2.4544-4.78-6.1077 0-3.6731 1.92-6.1359 4.78-6.1359 2.906 0 4.783 2.4106 4.783 6.1359 0 3.7112-1.874 6.1077-4.783 6.1077ZM196.673 10.8586V8.10765h-3.149V25.0863h3.443v-8.5225c0-3.5728 1.492-5.5414 4.216-5.5414.392 0 .772.0593 1.229.1906l.233.0636.107-3.35112-1.475-.11298c-1.987-.00141-3.596 1.07608-4.604 3.0461ZM210.965 7.35641c.565.57193.862 1.33168.862 2.14934 0 .85435-.319 1.61975-.907 2.18325-.613.5818-1.372.8939-2.166.8939-.829 0-1.592-.3262-2.185-.9391-.566-.5875-.887-1.3388-.887-2.14088 0-.81765.327-1.60988.937-2.21147.572-.56064 1.307-.86567 2.135-.86567.849.00141 1.621.32339 2.211.93063ZM207 7.69392c-.497.49709-.763 1.1368-.763 1.81183 0 .65805.246 1.26385.721 1.74685.475.4971 1.107.7654 1.783.7654.658 0 1.291-.2528 1.779-.7273.481-.4617.745-1.0944.745-1.78637 0-.67643-.246-1.29073-.712-1.76099-.489-.49708-1.109-.75834-1.799-.75834-.681 0-1.278.2429-1.754.70892Zm1.81.0579c.963 0 1.458.34881 1.458.98005 0 .43495-.259.77246-.718.91086l.757 1.48137h-1.025l-.631-1.33733h-.267v1.33733h-.929V7.75041l1.355.00141Zm-.433 1.48561h.323c.414 0 .613-.14545.613-.43495 0-.33045-.209-.46602-.662-.46602h-.274v.90097Z"/></svg>